<svg xmlns="http://www.w3.org/2000/svg" viewBox="0 0 131.09 114.16"><defs><style>.cls-1{fill:#1d1d1b;stroke:#fff;stroke-width:3px;}.cls-1,.cls-8{stroke-miterlimit:10;}.cls-2{fill:#27a94e;}.cls-3{fill:#fbbb0e;}.cls-4{fill:#3b55a2;}.cls-5{fill:#622263;}.cls-6{fill:#adacac;}.cls-7{fill:#cdcccc;}.cls-8{fill:#5c5c5c;stroke:#1e1e1e;stroke-width:0.5px;}</style></defs><g id="Calque_2" data-name="Calque 2"><g id="Calque_1-2" data-name="Calque 1"><rect class="cls-1" x="1.5" y="1.5" width="76.29" height="111.16"/><rect class="cls-2" x="7.82" y="18.93" width="28.67" height="28.67"/><rect class="cls-3" x="36.49" y="8.83" width="31.45" height="76.8"/><circle class="cls-4" cx="39.65" cy="45.58" r="10.48"/><path class="cls-5" d="M53.54,82.34H19.44V64.15Z"/><path class="cls-6" d="M81.16,46.13l-.78-5.72,43-5.28c4.35-.23,7.5.79,7.67,2s-2.45,3-6.35,4Z"/><path class="cls-7" d="M80.74,43.38c.16,2-4.26,3.61-4.5,3.7a15.17,15.17,0,0,1-9.45-.14,4.28,4.28,0,0,0,2.32.17,3.82,3.82,0,0,0,1.55-.69l-5.29-.2a9.47,9.47,0,0,0,3.83-.53,7.63,7.63,0,0,0,1.24-.58c-5.76.41-7.16.41-7.17.29s1.37-.28,3.69-.94c1-.28,1.76-.54,2.32-.74-.75.07-1.57.17-2.44.32-1.11.19-2.11.42-3,.65a15,15,0,0,1,4.3-1.95,16.84,16.84,0,0,1,3.56-.59c-.86,0-1.79.12-2.77.23-1.27.15-2.43.34-3.47.54.93-.49,6.71-3.44,11.74-2C77.77,41,80.61,41.83,80.74,43.38Z"/><rect class="cls-8" x="74.8" y="41.16" width="7.15" height="4.72" transform="translate(44.59 126.55) rotate(-96.9)"/></g></g></svg>