<svg xmlns="http://www.w3.org/2000/svg" viewBox="0 0 134.88 108.75"><defs><style>.cls-1,.cls-2{fill:#fff;}.cls-1{stroke:#fff;stroke-miterlimit:10;}</style></defs><g id="Calque_2" data-name="Calque 2"><g id="Calque_1-2" data-name="Calque 1"><path class="cls-1" d="M100.92,35V96.25a12,12,0,0,1-12,12H12.5a12,12,0,0,1-12-12V35Z"/><path class="cls-1" d="M.61,35a12,12,0,0,1,10.14-13.6l75.63-11A10.83,10.83,0,0,1,96.06,12,10.77,10.77,0,0,1,100,20.52Z"/><line class="cls-2" x1="95.93" y1="6.82" x2="97.76"/><path class="cls-2" d="M95.93,6.82a11.54,11.54,0,0,1,.44-3.54A11.21,11.21,0,0,1,97.76,0a11.24,11.24,0,0,1-.43,3.54A11.35,11.35,0,0,1,95.93,6.82Z"/><line class="cls-2" x1="102.15" y1="15.69" x2="109.35" y2="13.62"/><path class="cls-2" d="M102.15,15.69a12.91,12.91,0,0,1,3.46-1.51,12.28,12.28,0,0,1,3.74-.56,12.8,12.8,0,0,1-3.46,1.52A12.54,12.54,0,0,1,102.15,15.69Z"/><line class="cls-2" x1="103.19" y1="24.98" x2="110.44" y2="28.24"/><path class="cls-2" d="M103.19,25A14.44,14.44,0,0,1,107,26.15a14.28,14.28,0,0,1,3.42,2.09,14.21,14.21,0,0,1-3.83-1.18A14.24,14.24,0,0,1,103.19,25Z"/><path class="cls-2" d="M117.05,3.45l-.09.07-.11.12-.12.13-.07.06c-.1.11-.21.21-.31.31a2.44,2.44,0,0,0-.27.29A14.85,14.85,0,0,0,115,5.87a10.29,10.29,0,0,0-.86,1.51,7.63,7.63,0,0,0-.41,1.07,6,6,0,0,0-.25,1.11,5.82,5.82,0,0,0,0,1.1,4.09,4.09,0,0,0,.22,1.05,4,4,0,0,0,.31.66,1,1,0,0,0,.43.41,1,1,0,0,0,.77,0,2.59,2.59,0,0,0,.81-.51,6.42,6.42,0,0,0,.8-.88,11.23,11.23,0,0,0,.76-1.1c.24-.39.46-.79.67-1.2s.38-.79.54-1.14a.84.84,0,0,0,.11-.27,1,1,0,0,1,.12-.28.13.13,0,0,1,.19,0,.34.34,0,0,1,.14.18,2.63,2.63,0,0,1,.07,1,4.75,4.75,0,0,1-.27,1,7.48,7.48,0,0,1-.59,1.16,9.06,9.06,0,0,1-.81,1.14,6.41,6.41,0,0,1-1,1,3.56,3.56,0,0,1-1.11.6,2.19,2.19,0,0,1-.92.12,2.1,2.1,0,0,1-.76-.22,2.54,2.54,0,0,1-.62-.47,4.34,4.34,0,0,1-.49-.64,2.6,2.6,0,0,1-.13-.24c0-.09-.08-.18-.11-.27a4.77,4.77,0,0,1-.24-1.23,9.17,9.17,0,0,1,0-1.17,2.39,2.39,0,0,1,.06-.53A8,8,0,0,1,112.86,7a9.71,9.71,0,0,1,.93-1.7A11.16,11.16,0,0,1,115,3.84a8.35,8.35,0,0,1,1.44-1.19.66.66,0,0,1,.44-.14l.14,0a.32.32,0,0,0,.13-.11.45.45,0,0,1,.41-.15.42.42,0,0,1,.36.27,1.39,1.39,0,0,1,.12.7c0,.22,0,.42,0,.62s0,.39,0,.59,0,.41,0,.63a7.22,7.22,0,0,0,.07.75V6a.33.33,0,0,1,0,.13.24.24,0,0,1-.14.18.21.21,0,0,1-.23,0l-.08,0-.09-.07a1.92,1.92,0,0,1-.37-.59,3,3,0,0,1-.22-.72,2.58,2.58,0,0,1,0-.73A1.78,1.78,0,0,1,117.05,3.45Z"/><path class="cls-2" d="M121.92,11.14a.2.2,0,0,0,.22.07.37.37,0,0,0,.2-.12,8.65,8.65,0,0,0,.54-.93l.44-1,.4-.93c.13-.3.27-.57.4-.83,0-.08.1-.12.15-.09a.14.14,0,0,1,.07.16c-.06.23-.12.45-.19.66l-.21.66c-.16.45-.31.93-.47,1.43a5.53,5.53,0,0,1-.6,1.35,1.3,1.3,0,0,1-.59.53,1.35,1.35,0,0,1-.72,0,.75.75,0,0,1-.52-.39,6.21,6.21,0,0,1-.46-1.52,13.37,13.37,0,0,1-.21-2,18.29,18.29,0,0,1,0-2.09c0-.7.13-1.4.24-2.08s.24-1.34.4-2c.08-.26.16-.52.25-.77a5.7,5.7,0,0,1,.29-.72.58.58,0,0,1,.18-.23.38.38,0,0,1,.29-.08.41.41,0,0,1,.4.37,7.75,7.75,0,0,1,.14,1.52,10.87,10.87,0,0,1-.14,1.51,10.45,10.45,0,0,1-.34,1.47c-.15.48-.32,1-.51,1.4a.19.19,0,0,0,0,.1s0,.08,0,.12c0,.37,0,.77,0,1.21s0,.85,0,1.25a10.61,10.61,0,0,0,.14,1.1A2.39,2.39,0,0,0,121.92,11.14Zm.44-9.75a17.78,17.78,0,0,0-.43,2.15c-.1.72-.2,1.44-.29,2.16a2.9,2.9,0,0,0,.17-.47c.06-.22.13-.46.18-.73s.12-.55.16-.86.09-.6.13-.88.06-.55.08-.79A2.75,2.75,0,0,0,122.36,1.39Z"/><path class="cls-2" d="M126.06,8.65c-.06.08-.13.17-.2.28a2.27,2.27,0,0,1-.26.28,2,2,0,0,1-.33.24,1.06,1.06,0,0,1-.4.14.69.69,0,0,1-.32,0,1.35,1.35,0,0,1-.32-.11A.6.6,0,0,1,124,9.2a1.7,1.7,0,0,1-.12-.33c0-.23,0-.47,0-.73a5.39,5.39,0,0,1,.06-.8,4.29,4.29,0,0,1,.42-1.25,2.08,2.08,0,0,1,.9-.91,1.3,1.3,0,0,1,.44-.17,1.13,1.13,0,0,1,.45,0,.72.72,0,0,1,.35.2.48.48,0,0,1,.16.34c0,.06,0,.11,0,.17a.54.54,0,0,1,0,.15s0,.07-.07.08-.06,0-.1,0l-.07-.09-.1-.12a.53.53,0,0,0-.15-.08.3.3,0,0,0-.21,0,1,1,0,0,0-.48.48A5,5,0,0,0,125,7a6.9,6.9,0,0,0-.25.94,3.53,3.53,0,0,0-.08.67c0,.23.06.34.13.33s.14-.08.24-.23a4.65,4.65,0,0,0,.32-.57q.16-.34.3-.69l.24-.59.11-.28a.6.6,0,0,1,.31-.22.53.53,0,0,1,.33,0,.57.57,0,0,1,.26.2.54.54,0,0,1,.07.33,5.37,5.37,0,0,1-.1.54,1.8,1.8,0,0,0,0,.55q.06.33.21.39c.1,0,.25,0,.43-.16a1.64,1.64,0,0,0,.42-.52c.13-.22.26-.46.38-.71s.23-.48.33-.71a3.76,3.76,0,0,1,.27-.51l.08-.11s.06-.06.09-.05a.11.11,0,0,1,.1.05l0,.09a5.67,5.67,0,0,1-.16.9,4.37,4.37,0,0,1-.31.88,3.81,3.81,0,0,1-.47.8,3.69,3.69,0,0,1-.66.65,1.25,1.25,0,0,1-.46.21.9.9,0,0,1-.43,0,.87.87,0,0,1-.37-.19A1.35,1.35,0,0,1,126.06,8.65Z"/><path class="cls-2" d="M129.92,6.41c-.08.61-.14,1.2-.19,1.76s-.09,1.12-.11,1.66-.06,1.07-.09,1.61-.06,1.1-.11,1.67v.11a.4.4,0,0,1,0,.15.24.24,0,0,1-.1.14.08.08,0,0,1-.08,0,1,1,0,0,1-.38-.46,2.17,2.17,0,0,1-.19-.66c0-.41-.07-.86-.08-1.34s0-1,0-1.47,0-1,.08-1.52.08-1,.12-1.51.13-1.09.18-1.57.12-1,.19-1.42a.27.27,0,0,1,.24-.2.62.62,0,0,1,.37.06.93.93,0,0,1,.33.26.53.53,0,0,1,.15.36,5.48,5.48,0,0,1-.12.84,7.14,7.14,0,0,0-.11.79c.22-.37.44-.74.67-1.09a2.53,2.53,0,0,1,.89-.86,1,1,0,0,1,.44-.12.67.67,0,0,1,.32.1.82.82,0,0,1,.24.25,3.37,3.37,0,0,1,.19.32s0,0,0,0a.05.05,0,0,0,.05,0,6.35,6.35,0,0,1,.81-.44,7.3,7.3,0,0,1,.84-.33.45.45,0,0,1,.33,0c.08,0,0,.1-.07.19s-.3.19-.47.28l-.49.29-.46.31a2,2,0,0,0-.37.32.85.85,0,0,0-.19.47,3,3,0,0,1-.24.85,4.12,4.12,0,0,1-.48.81,3.17,3.17,0,0,1-.67.65,1.78,1.78,0,0,1-.79.34.44.44,0,0,1-.4-.16,1.52,1.52,0,0,1-.24-.38c-.05-.15,0-.24.12-.28l.09-.09a.23.23,0,0,0,0-.11,1.93,1.93,0,0,1,.22-.52,5.25,5.25,0,0,1,.71-.85,8.52,8.52,0,0,1,.8-.7c.12-.07.18-.12.19-.15a.74.74,0,0,0,0-.23.39.39,0,0,0-.34-.25c-.15,0-.35.09-.59.32s-.22.26-.33.42-.24.34-.35.52l-.32.52C130.1,6.12,130,6.27,129.92,6.41Zm.6.47a.61.61,0,0,0,.38-.13,1.87,1.87,0,0,0,.45-.36,3.64,3.64,0,0,0,.4-.48,1.74,1.74,0,0,0,.23-.48,10,10,0,0,0-.77.67A8.72,8.72,0,0,0,130.52,6.88Z"/></g></g></svg>