<svg xmlns="http://www.w3.org/2000/svg" viewBox="0 0 110.68 133.36"><defs><style>.cls-1{fill:#1d1d1b;}</style></defs><g id="Calque_2" data-name="Calque 2"><g id="Calque_1-2" data-name="Calque 1"><path d="M55.34,0a55.34,55.34,0,1,0,55.34,55.34A55.34,55.34,0,0,0,55.34,0ZM13.63,57.81a1.24,1.24,0,1,1,1.24-1.23A1.23,1.23,0,0,1,13.63,57.81ZM81,38.65a1.57,1.57,0,1,1-1.56,1.57A1.57,1.57,0,0,1,81,38.65ZM69.58,11.75A2.56,2.56,0,1,1,67,14.31,2.56,2.56,0,0,1,69.58,11.75ZM50.89,31.45a2.22,2.22,0,1,1-2.22,2.21A2.21,2.21,0,0,1,50.89,31.45ZM46.68,57.81a1.23,1.23,0,1,1-1.23-1.23A1.23,1.23,0,0,1,46.68,57.81ZM44.22,11.75A1.28,1.28,0,1,1,42.94,13,1.28,1.28,0,0,1,44.22,11.75ZM31.4,24.63a2.31,2.31,0,1,1-2.3,2.31A2.3,2.3,0,0,1,31.4,24.63Zm2.12,23.12a4.42,4.42,0,1,1-4.42,4.41A4.42,4.42,0,0,1,33.52,47.75ZM86,92.94c-18.44,16.35-45.87,13.79-61.8-6.14A72.28,72.28,0,0,0,64.81,70.41c20.57-16.87,26.91-40,28.6-47.11C108.4,45,104.92,76.2,86,92.94Z"/><path class="cls-1" d="M15.8,115.83h3.88c2.53,0,3.78,1.5,3.78,4.27v8.74c0,2.77-1.25,4.28-3.78,4.28H15.8Zm3.83,14.82c.81,0,1.29-.45,1.29-1.68v-9c0-1.24-.48-1.68-1.29-1.68H18.34v12.35Z"/><path class="cls-1" d="M27.09,115.83h3.43l2.64,17.29H30.62l-.46-3.44v0H27.27l-.46,3.39H24.46Zm2.77,11.56-1.13-8.55h-.05l-1.11,8.55Z"/><path class="cls-1" d="M34.38,115.83h3.76c2.63,0,3.76,1.31,3.76,4v1.07c0,1.78-.53,2.91-1.66,3.4v0c1.27.42,1.69,1.71,1.69,3.66v3a5.52,5.52,0,0,0,.27,2.1H39.62a5.69,5.69,0,0,1-.23-2.13v-3.16c0-1.6-.44-2.12-1.59-2.12h-.88v7.41H34.38Zm3.46,7.41c.95,0,1.53-.45,1.53-1.83v-1.33c0-1.24-.4-1.78-1.3-1.78H36.92v4.94Z"/><path class="cls-1" d="M43.69,115.83h2.53v7.28l3.23-7.28H52l-3,6.34,3.07,11H49.39l-2.15-7.71-1,2.2v5.51H43.69Z"/><path class="cls-1" d="M56.94,115.83h3.62l1.61,12.37h0l1.62-12.37h3.62v17.29h-2.4V120h0l-1.84,13.09H61L59.2,120h-.05v13.09H56.94Z"/><path class="cls-1" d="M69.17,129v-9.09c0-2.77,1.36-4.35,3.86-4.35s3.85,1.58,3.85,4.35V129c0,2.76-1.36,4.34-3.85,4.34S69.17,131.78,69.17,129Zm5.17.17v-9.43c0-1.24-.51-1.71-1.31-1.71s-1.32.47-1.32,1.71v9.43c0,1.23.51,1.7,1.32,1.7S74.34,130.42,74.34,129.19Z"/><path class="cls-1" d="M78.59,115.83h3.88c2.53,0,3.78,1.5,3.78,4.27v8.74c0,2.77-1.25,4.28-3.78,4.28H78.59Zm3.83,14.82c.81,0,1.29-.45,1.29-1.68v-9c0-1.24-.48-1.68-1.29-1.68H81.13v12.35Z"/><path class="cls-1" d="M88,115.83h6.93v2.47H90.5v4.57H94v2.47H90.5v5.31h4.39v2.47H88Z"/></g></g></svg>