<svg xmlns="http://www.w3.org/2000/svg" viewBox="0 0 155.07 99.29"><defs><style>.cls-1{fill:#fff;}.cls-2{fill:#fdfdfd;}.cls-3{fill:#a8a6a6;}</style></defs><g id="Calque_2" data-name="Calque 2"><g id="Calque_1-2" data-name="Calque 1"><path class="cls-1" d="M40.88,6.57,14.23,5.36A2.39,2.39,0,0,1,12,2.83h0A2.37,2.37,0,0,1,14.43.51L41.08,1.72A2.39,2.39,0,0,1,43.3,4.25h0A2.37,2.37,0,0,1,40.88,6.57Z"/><path class="cls-2" d="M138.62,4.84,112,7.07a2.37,2.37,0,0,1-2.5-2.23h0a2.41,2.41,0,0,1,2.13-2.61L138.25,0a2.35,2.35,0,0,1,2.5,2.22h0A2.39,2.39,0,0,1,138.62,4.84Z"/><path class="cls-3" d="M152.19,6.55a9.82,9.82,0,0,0-6.94-3C123.89,5.17,101,6.15,76.61,6.13c-23.65,0-46-1-66.79-2.59A10.07,10.07,0,0,0,0,13.78V89.05a10.44,10.44,0,0,0,2.88,7.23,9.82,9.82,0,0,0,6.94,3,249.07,249.07,0,0,1,135.43,0,10.07,10.07,0,0,0,9.82-10.24V13.78A10.4,10.4,0,0,0,152.19,6.55ZM45.45,41.34a3.41,3.41,0,0,1-3.23,3.55H33.51v9.56A3.41,3.41,0,0,1,30.29,58H25.78a3.42,3.42,0,0,1-3.23-3.55V44.89h-8.7a3.41,3.41,0,0,1-3.23-3.55V36.4a3.41,3.41,0,0,1,3.23-3.55h8.7V23.29a3.41,3.41,0,0,1,3.23-3.55h4.51a3.4,3.4,0,0,1,3.22,3.55v9.56h8.71a3.41,3.41,0,0,1,3.23,3.55Zm24.64,7.81H60.63a1.14,1.14,0,0,1,0-2.27h9.46a1.14,1.14,0,0,1,0,2.27ZM121.88,20a5.82,5.82,0,1,1-5.73,5.82A5.78,5.78,0,0,1,121.88,20ZM94.44,49.15H85a1.14,1.14,0,0,1,0-2.27h9.46a1.14,1.14,0,0,1,0,2.27Zm16.8-5.82A5.83,5.83,0,1,1,117,37.5,5.78,5.78,0,0,1,111.24,43.33ZM121.88,55a5.82,5.82,0,1,1,5.74-5.82A5.78,5.78,0,0,1,121.88,55Zm10.77-11.64a5.83,5.83,0,1,1,5.73-5.83A5.79,5.79,0,0,1,132.65,43.33Z"/></g></g></svg>