<svg xmlns="http://www.w3.org/2000/svg" viewBox="0 0 112.07 134.69"><defs><style>.cls-1{fill:#fff;}</style></defs><g id="Calque_2" data-name="Calque 2"><g id="Calque_1-2" data-name="Calque 1"><circle class="cls-1" cx="56.04" cy="55.76" r="8.29"/><path class="cls-1" d="M56,0a56,56,0,1,0,56,56A56,56,0,0,0,56,0ZM66.78,64.46,56.55,105Q51.26,84.73,45.94,64.46L13,53.64,46.7,48.92q4.54-22.17,9.1-44.33,4.73,21.78,9.47,43.58L99,53.64Z"/><path class="cls-1" d="M20.65,118.88h2.22v13.36h3.64v2.23H20.65Z"/><path class="cls-1" d="M27.58,118.88h2.21v15.59H27.58Z"/><path class="cls-1" d="M31.28,130.77v-8.19c0-2.5,1.13-3.92,3.3-3.92s3.3,1.42,3.3,3.92v1.33H35.79v-1.49c0-1.11-.44-1.54-1.15-1.54s-1.14.43-1.14,1.54V131c0,1.11.44,1.51,1.14,1.51s1.15-.4,1.15-1.51v-3H34.68v-2.23h3.2v5.1c0,2.5-1.12,3.92-3.3,3.92S31.28,133.27,31.28,130.77Z"/><path class="cls-1" d="M39.32,118.88h2.21v6.35H43.9v-6.35h2.22v15.59H43.9v-7H41.53v7H39.32Z"/><path class="cls-1" d="M49.5,121.11H47.19v-2.23H54v2.23H51.72v13.36H49.5Z"/><path class="cls-1" d="M58.32,118.88h3.16L62.89,130h0l1.41-11.16H67.5v15.59H65.41v-11.8h0l-1.61,11.8H61.91l-1.61-11.8h0v11.8H58.32Z"/><path class="cls-1" d="M69,130.77v-8.19c0-2.5,1.18-3.92,3.36-3.92s3.36,1.42,3.36,3.92v8.19c0,2.5-1.19,3.92-3.36,3.92S69,133.27,69,130.77Zm4.5.16v-8.51c0-1.11-.44-1.54-1.14-1.54s-1.15.43-1.15,1.54v8.51c0,1.11.44,1.53,1.15,1.53S73.5,132,73.5,130.93Z"/><path class="cls-1" d="M77.21,118.88h3.38c2.21,0,3.3,1.36,3.3,3.85v7.88c0,2.5-1.09,3.86-3.3,3.86H77.21Zm3.34,13.36c.7,0,1.13-.4,1.13-1.51v-8.11c0-1.11-.43-1.51-1.13-1.51H79.42v11.13Z"/><path class="cls-1" d="M85.38,118.88h6v2.23H87.6v4.12h3v2.22h-3v4.79h3.82v2.23h-6Z"/></g></g></svg>