<svg xmlns="http://www.w3.org/2000/svg" viewBox="0 0 564.46 100.17"><defs><style>.cls-1{fill:#e20613;}</style></defs><g id="Calque_2" data-name="Calque 2"><g id="Calque_1-2" data-name="Calque 1"><path class="cls-1" d="M58,63.06l19.27.12q.57,6.66,1.12,13.33c-1.85-.05-20.94-.85-31.7-16.58a36.87,36.87,0,0,1-5.6-27.14l42.65-.36c.25,3.56.49,7.13.74,10.69L99.13,16.46,49.28,16A45.57,45.57,0,0,1,68.67,7.09a46.19,46.19,0,0,1,17-.12,61.25,61.25,0,0,0-28-7A59.93,59.93,0,0,0,32.87,5.17C10.57,15.34,3.29,36.7,2.54,39c-8.25,25.55,6.1,46.51,8,49.12a53.08,53.08,0,0,1,3.36-32.91,53,53,0,0,0,7.83,21.26,50,50,0,0,0,37.67,23.66,14.86,14.86,0,0,1-8.08-4.92c-1-1.24-3.42-4.27-2.49-7.45a6.68,6.68,0,0,1,1.87-2.88,8.33,8.33,0,0,1,4.6-2.17h12.8l11.44-.12L97.64,48.4l-31.95-.12ZM23.79,41.92a45.33,45.33,0,0,1,8.46-26.67A59.44,59.44,0,0,0,17.45,28,58.49,58.49,0,0,0,4.52,58.61c0-3.49.17-23.55,16.91-39.27C36.77,4.93,55.34,4.16,59.47,4.08c-2.24.65-22.74,6.87-30,26.55-6.19,16.89,0,36.66,15.67,48.88C42.88,77.92,24.24,64.6,23.79,41.92Z"/><path class="cls-1" d="M144.07,10.82h56.45V26.4L193.88,22H172.73l9.79,4.18V72.05l2.62,11.19H164.08l2.62-11.19V22H155.78Z"/><path class="cls-1" d="M200.31,44.88l-3.94-2.15h12.55c9.33,0,18.62,6.86,18.62,20.53s-9.34,20.62-18.62,20.62S190.3,77,190.3,63.26C190.3,54,194.61,47.88,200.31,44.88Zm8.61,4.61c-4.2,0-8.4,4.6-8.4,13.87s4.2,13.77,8.4,13.77,8.4-4.55,8.4-13.77S213.12,49.49,208.92,49.49Z"/><path class="cls-1" d="M290.47,26.72l-5.41-4.38h-10c-9.25,0-13.95,12.56-13.95,25.11S265.7,72.37,275,72.37h2.92V53.59l-8-8.38h20.85V72.37L293,83.56H269.82c-14.94,0-22.42-18.2-22.42-36.3,0-12.95,3.77-25.8,11.39-32.12l-5.62-4h37.3Z"/><path class="cls-1" d="M305,45.2,301,43.06h12.55c9.34,0,18.62,6.85,18.62,20.52s-9.34,20.63-18.62,20.63S295,77.29,295,63.58C295,54.31,299.26,48.2,305,45.2Zm8.61,4.61c-4.2,0-8.4,4.6-8.4,13.87s4.2,13.78,8.4,13.78S322,72.9,322,63.68,317.77,49.81,313.57,49.81Z"/><path class="cls-1" d="M331.07,43.7h33.51v8.57l-3.95-2.41H348.08l5.81,2.3V77.4l1.56,6.16H343l1.56-6.16V49.86H338Z"/><path class="cls-1" d="M375.74,66.2l5.81,2.31v15H370.61l1.56-6.16V48.31l-5.81-4.61h15.19V60h11.88V48.31l-5.81-4.61h15.2V77.4l1.55,6.16H393.43V66.2Z"/><path class="cls-1" d="M405,43.7h15.19V77.4l1.56,6.16h-12.5l1.55-6.16V48.31Z"/><path class="cls-1" d="M434.07,45.31l-4.15-2.25h12.55c8.82,0,17.58,6.85,17.58,20.52,0,6.59-2,11.57-5.08,15l5.13,7.13H445.89l.52-2a16,16,0,0,1-3.94.49c-8.82,0-17.58-6.92-17.58-20.63C424.89,54.41,428.83,48.31,434.07,45.31Zm6.38,29.79h6.33c1.81-2.25,3.05-6.06,3.05-11.42,0-9.27-3.68-13.87-7.36-13.87s-7.37,4.6-7.37,13.87c0,8.95,3.48,13.51,7.06,13.78Z"/><path class="cls-1" d="M482.53,77.51c3.22,0,6.22-2.2,6.22-7.4V48.31l-5.81-4.61h12.61V70.11c0,9.92-6.59,14.15-13.64,14.15-8,0-16.6-5.47-16.6-14.15V48.31L459.5,43.7h15.2V70.11C474.7,74.56,478.74,77.51,482.53,77.51Z"/><path class="cls-1" d="M497.54,43.7h32.1v8.57l-3.94-2.41H506.92l5.81,2.3V60h11.88l-2.07,6.16h-9.81V77.4h12.45l3.16-6.16,3.11,12.32H501.79l1.56-6.16V48.31Z"/><path class="cls-1" d="M549.93,49.86c-3.68,0-5.49,2.52-5.49,5,0,6.65,20,.81,20,16.4,0,6.16-4.46,12.32-13.18,12.32H533.65l3.11-12.32,3.17,6.16H547c4.93,0,7.31-2.89,7.31-5.73,0-8.52-19.76-1.56-19.76-16.67a11.49,11.49,0,0,1,4.25-9l-4.4-2.3h26.76v8.57l-3.94-2.41Z"/><path class="cls-1" d="M112.1,44.49l-3.83-2.19h12.19c9.07,0,18.09,7,18.09,21s-9.07,21.06-18.09,21.06-18.08-7-18.08-21.06C102.38,53.79,106.56,47.56,112.1,44.49Zm8.36,4.71c-4.08,0-8.16,4.7-8.16,14.16s4.08,14.06,8.16,14.06,8.16-4.65,8.16-14.06S124.54,49.2,120.46,49.2Z"/></g></g></svg>