<svg xmlns="http://www.w3.org/2000/svg" viewBox="0 0 135.25 52.76"><defs><style>.cls-1,.cls-2{fill:#fff;}.cls-2{stroke:#fff;stroke-miterlimit:10;}.cls-3{fill:#ec6191;}</style></defs><g id="Calque_2" data-name="Calque 2"><g id="Calque_1-2" data-name="Calque 1"><path class="cls-1" d="M43.08,26.93a67.12,67.12,0,0,0-1.91-14.78,82.16,82.16,0,0,0-38.45,0,48.14,48.14,0,0,0,0,31.92A121.78,121.78,0,0,0,23,45.61a121.59,121.59,0,0,0,18.19-1.54A66.82,66.82,0,0,0,43.08,26.93ZM38.35,42a101.14,101.14,0,0,1-15.58,1.34A101,101,0,0,1,5.42,42a54.61,54.61,0,0,1,0-27.82,69.42,69.42,0,0,1,32.93,0A77.17,77.17,0,0,1,39.6,27.83,77.21,77.21,0,0,1,38.35,42Z"/><path class="cls-1" d="M6.15,44.63c1.21,3.29-3.78,7.94-3.43,8.12s3-3,5.34-6.42c1.22-1.77,1.7-2.68,1.2-3.21a2.76,2.76,0,0,0-3.11,0C5.7,43.58,6,44.31,6.15,44.63Z"/><path class="cls-1" d="M36.55,44.63c-1.22,3.29,3.78,7.94,3.43,8.12s-3-3-5.34-6.42c-1.22-1.77-1.7-2.68-1.2-3.21a2.76,2.76,0,0,1,3.11,0C37,43.58,36.67,44.31,36.55,44.63Z"/><line class="cls-2" x1="17.63" y1="9.99" x2="12.48" y2="0.23"/><line class="cls-2" x1="24.74" y1="9.92" x2="29.6" y2="1.92"/><path class="cls-3" d="M38.35,42A101.52,101.52,0,0,1,22,43.32,101.45,101.45,0,0,1,5.42,42a53,53,0,0,1,0-27.82,69.36,69.36,0,0,1,32.93,0A78.88,78.88,0,0,1,39.6,27.06,77.84,77.84,0,0,1,38.35,42Z"/><path class="cls-1" d="M18.33,15.29l11.56,12L18.51,38.76Z"/><path class="cls-1" d="M47.6,33.58a1,1,0,0,1-.59-.2.64.64,0,0,1-.25-.49V22.48A.61.61,0,0,1,47,22a.7.7,0,0,1,.52-.21h4.93a3.87,3.87,0,0,1,1.81.43,3.33,3.33,0,0,1,1.28,1.19A3.13,3.13,0,0,1,56,25.13a3.1,3.1,0,0,1-.28,1.32,3.46,3.46,0,0,1-.79,1.07,3.27,3.27,0,0,1-1.14.67l-.4-.25a2.73,2.73,0,0,1,1.09.46,2.6,2.6,0,0,1,1.11,2.11c0,.42.06.75.09,1a2.16,2.16,0,0,0,.16.58.82.82,0,0,0,.31.33.76.76,0,0,1,.33.4.53.53,0,0,1-.1.49.53.53,0,0,1-.3.23,1.1,1.1,0,0,1-.4,0,1.08,1.08,0,0,1-.36-.11,2.34,2.34,0,0,1-.54-.45,2,2,0,0,1-.45-.85,5.46,5.46,0,0,1-.17-1.51,1.89,1.89,0,0,0-.19-.89,1.5,1.5,0,0,0-.48-.57,1.94,1.94,0,0,0-.67-.3A3.31,3.31,0,0,0,52,28.8h-4l.22-.29v4.38a.72.72,0,0,1-.18.49A.63.63,0,0,1,47.6,33.58Zm.45-6h4.38a2,2,0,0,0,1-.33,2.25,2.25,0,0,0,.74-.84,2.65,2.65,0,0,0,.29-1.25,2,2,0,0,0-.6-1.46,2,2,0,0,0-1.5-.59H48.12l.15-.34v5.12Z"/><path class="cls-1" d="M59.27,23.61a1,1,0,0,1-.66-.17.59.59,0,0,1-.22-.52v-.23a.63.63,0,0,1,.23-.53,1.17,1.17,0,0,1,.67-.16,1,1,0,0,1,.64.16.65.65,0,0,1,.21.53v.23a.59.59,0,0,1-.22.52A1,1,0,0,1,59.27,23.61ZM60,32.89a.7.7,0,0,1-.2.49.78.78,0,0,1-1,0,.67.67,0,0,1-.21-.49V25.43a.67.67,0,0,1,.21-.49.78.78,0,0,1,1,0,.7.7,0,0,1,.2.49Z"/><path class="cls-1" d="M66.76,33.75a5.13,5.13,0,0,1-2.5-.58,4.15,4.15,0,0,1-1.67-1.57,4.43,4.43,0,0,1-.6-2.32,4.76,4.76,0,0,1,.61-2.49,4.3,4.3,0,0,1,1.61-1.59,4.39,4.39,0,0,1,2.11-.54,4.53,4.53,0,0,1,1.6.28,4.18,4.18,0,0,1,1.36.84,4.2,4.2,0,0,1,1.33,3,.62.62,0,0,1-.23.45.77.77,0,0,1-.5.18H62.81l-.32-1.17h6.89l-.29.24v-.37A2.15,2.15,0,0,0,68.6,27a2.85,2.85,0,0,0-1-.76,3,3,0,0,0-1.26-.27,3.29,3.29,0,0,0-1.07.18,2.83,2.83,0,0,0-1,.58,2.67,2.67,0,0,0-.67,1,4.11,4.11,0,0,0-.25,1.49,3.42,3.42,0,0,0,.42,1.72A3,3,0,0,0,65,32.07a3.43,3.43,0,0,0,1.74.43,3.52,3.52,0,0,0,1.1-.15,3.49,3.49,0,0,0,.8-.38,4.74,4.74,0,0,0,.57-.46.81.81,0,0,1,.45-.15.63.63,0,0,1,.44.16.55.55,0,0,1,.18.41.67.67,0,0,1-.3.52,4.42,4.42,0,0,1-1.36.91A4.36,4.36,0,0,1,66.76,33.75Z"/><path class="cls-1" d="M77.27,24.66a3.33,3.33,0,0,1,1.91.47,2.52,2.52,0,0,1,1,1.26,5,5,0,0,1,.3,1.78v4.72a.67.67,0,0,1-.21.49.73.73,0,0,1-.51.2.72.72,0,0,1-.52-.2.69.69,0,0,1-.19-.49V28.21a3,3,0,0,0-.21-1.16,1.77,1.77,0,0,0-.69-.84,2.32,2.32,0,0,0-1.29-.31,3,3,0,0,0-1.37.31,2.7,2.7,0,0,0-1,.84,1.91,1.91,0,0,0-.37,1.16v4.68a.67.67,0,0,1-.21.49.69.69,0,0,1-.51.2.73.73,0,0,1-.51-.2.7.7,0,0,1-.2-.49V25.56a.66.66,0,0,1,.2-.49.73.73,0,0,1,.51-.2.7.7,0,0,1,.52.2.66.66,0,0,1,.2.49v1.18l-.36.37a2.4,2.4,0,0,1,.41-.88,3.84,3.84,0,0,1,.81-.8A4,4,0,0,1,76,24.87,3.67,3.67,0,0,1,77.27,24.66Z"/><path class="cls-1" d="M87.69,23.54l-4.2,9.63a.64.64,0,0,1-.25.33.6.6,0,0,1-.38.13.65.65,0,0,1-.5-.18.76.76,0,0,1-.18-.41,1.18,1.18,0,0,1,0-.25L86.85,22.2a.83.83,0,0,1,.3-.36.73.73,0,0,1,.42-.1.76.76,0,0,1,.42.12.6.6,0,0,1,.26.34l4.62,10.49a.86.86,0,0,1,0,.27.58.58,0,0,1-.22.48.68.68,0,0,1-.48.19.67.67,0,0,1-.41-.13.76.76,0,0,1-.27-.34l-4.26-9.63Zm-3.3,6.89.6-1.31h5.32l.27,1.31Z"/><path class="cls-1" d="M101.79,32.25a.74.74,0,0,1,.52.19.64.64,0,0,1,.22.48.6.6,0,0,1-.22.47.74.74,0,0,1-.52.19H95.6a.76.76,0,0,1-.53-.2.7.7,0,0,1-.2-.49V22.48a.63.63,0,0,1,.21-.48.78.78,0,0,1,.56-.21.73.73,0,0,1,.52.21.63.63,0,0,1,.21.48V32.55l-.36-.3Z"/><path class="cls-1" d="M111.86,24.79a.69.69,0,0,1,.52.19.66.66,0,0,1,.2.48v7.43a.67.67,0,0,1-.21.49.75.75,0,0,1-1,0,.66.66,0,0,1-.2-.49v-1.6l.34,0a1.53,1.53,0,0,1-.27.82,3.23,3.23,0,0,1-.73.81,4,4,0,0,1-1.1.62,3.85,3.85,0,0,1-1.35.25,4.06,4.06,0,0,1-2.2-.6,4.21,4.21,0,0,1-1.53-1.63,5.09,5.09,0,0,1,0-4.68A4.13,4.13,0,0,1,108,24.66a4.17,4.17,0,0,1,1.43.23,3.94,3.94,0,0,1,1.16.64,3.35,3.35,0,0,1,.77.89,2,2,0,0,1,.27,1l-.46-.1V25.46a.62.62,0,0,1,.2-.48A.69.69,0,0,1,111.86,24.79Zm-3.68,7.71a2.89,2.89,0,0,0,1.58-.44,3,3,0,0,0,1.08-1.18,3.76,3.76,0,0,0,.38-1.7,3.62,3.62,0,0,0-.38-1.66,3,3,0,0,0-1.08-1.18,3.07,3.07,0,0,0-3.15,0,3,3,0,0,0-1.08,1.17,3.56,3.56,0,0,0-.39,1.68,3.64,3.64,0,0,0,.39,1.7,3,3,0,0,0,1.08,1.18A2.88,2.88,0,0,0,108.18,32.5Z"/><path class="cls-1" d="M114.05,23.09a.73.73,0,0,1-.52-.19.6.6,0,0,1-.22-.47.58.58,0,0,1,.22-.46.77.77,0,0,1,.52-.18h8.32a.76.76,0,0,1,.52.19.59.59,0,0,1,.21.47.57.57,0,0,1-.21.46.8.8,0,0,1-.52.18Zm4.15,10.49a.77.77,0,0,1-.55-.2.7.7,0,0,1-.2-.49V22.5H119V32.89a.64.64,0,0,1-.22.49A.79.79,0,0,1,118.2,33.58Z"/><path class="cls-1" d="M134.5,21.78A.79.79,0,0,1,135,22a.58.58,0,0,1,.22.46,1,1,0,0,1-.07.32l-4.67,10.4a.75.75,0,0,1-.3.33.8.8,0,0,1-.4.11,1,1,0,0,1-.39-.13.68.68,0,0,1-.27-.31l-4.64-10.39a.53.53,0,0,1-.05-.15.88.88,0,0,1,0-.17.6.6,0,0,1,.24-.49.8.8,0,0,1,.48-.18.74.74,0,0,1,.7.47l4.27,9.6h-.41l4.11-9.62A.71.71,0,0,1,134.5,21.78Z"/></g></g></svg>