<svg xmlns="http://www.w3.org/2000/svg" viewBox="0 0 420.68 75.68"><defs><style>.cls-1{fill:#fff;}.cls-2{fill:none;stroke:#fff;stroke-miterlimit:10;}</style></defs><g id="Calque_2" data-name="Calque 2"><g id="Calque_1-2" data-name="Calque 1"><g id="Calque_1-2-2" data-name="Calque 1-2"><g id="Calque_2-2" data-name="Calque 2-2"><path class="cls-1" d="M66.78,36.19a80.36,80.36,0,0,0-3-20,142.31,142.31,0,0,0-59,0,58.12,58.12,0,0,0,0,43.31A209.82,209.82,0,0,0,35.9,61.54a204.13,204.13,0,0,0,27.92-2.1A80.48,80.48,0,0,0,66.78,36.19ZM59.59,56.57A173.67,173.67,0,0,1,35.82,58.4,173.5,173.5,0,0,1,9.08,56.57a66.23,66.23,0,0,1,0-37.69,120.12,120.12,0,0,1,50.51,0A93.72,93.72,0,0,1,61.5,37.43,93.72,93.72,0,0,1,59.59,56.57Z"/><path class="cls-1" d="M5.31,60.07C7.16,64.54-.5,70.84,0,71.07s4.62-4,8.21-8.69c1.88-2.4,2.64-3.64,1.83-4.35a4.76,4.76,0,0,0-4.76,0C4.62,58.65,5.13,59.66,5.31,60.07Z"/><path class="cls-1" d="M63.5,60.05c-1.85,4.47,5.81,10.77,5.28,11s-4.62-4-8.22-8.7C58.69,60,57.92,58.72,58.74,58a4.81,4.81,0,0,1,4.76,0C64.24,58.63,63.68,59.64,63.5,60.05Z"/><line class="cls-2" x1="23.67" y1="13.48" x2="15.77" y2="0.26"/><line class="cls-2" x1="43.89" y1="13.88" x2="51.34" y2="3.02"/><path class="cls-1" d="M26.16,21.39,43.89,37.75,26.43,53.22Z"/></g></g><path class="cls-1" d="M106.7,48.35a25.45,25.45,0,0,1,5,8A37,37,0,0,1,114,69.56v1.81h-7.78V69.56a19.65,19.65,0,0,0-3.66-12q-3.7-5-8.93-5H86.32V71.37H78.54V4.74H96.33q7.36,0,12.59,7a27.55,27.55,0,0,1,5.24,16.9,30.19,30.19,0,0,1-2.59,12.46Q109,46.59,106.7,48.35ZM86.32,15.22V42.15h10a8.62,8.62,0,0,0,7.1-3.92,15.67,15.67,0,0,0,2.91-9.55,15.48,15.48,0,0,0-2.91-9.5c-2-2.64-4.33-4-7.1-4Z"/><path class="cls-1" d="M123,17a7.14,7.14,0,0,1-1.37-4.4A7.2,7.2,0,0,1,123,8.18a3.84,3.84,0,0,1,6.57,0A7.2,7.2,0,0,1,131,12.62a7.15,7.15,0,0,1-1.38,4.4A3.84,3.84,0,0,1,123,17Zm-.52,5.72h7.62V71.32H122.5Z"/><path class="cls-1" d="M155.63,22.17q7.62,0,13.05,7.3A28.62,28.62,0,0,1,174.11,47l-.06,3.17H145a16.66,16.66,0,0,0,3.27,7.61,9.23,9.23,0,0,0,7.36,3.88,8.62,8.62,0,0,0,5.69-2.25q2.52-2,4.45-7.08l7,4.09q-2.94,7.92-7.32,11.62a14.75,14.75,0,0,1-9.85,3.87q-7.62,0-13-7.31A28.55,28.55,0,0,1,137.12,47a28.51,28.51,0,0,1,5.46-17.56Q148,22.17,155.63,22.17ZM165.18,40A14.11,14.11,0,0,0,162,35.2a8.92,8.92,0,0,0-6.35-2.78,8.81,8.81,0,0,0-6.34,2.78A15.85,15.85,0,0,0,146.11,40Z"/><path class="cls-1" d="M211.34,71.32h-7.63V42.5a11.63,11.63,0,0,0-2.19-7.13,6.2,6.2,0,0,0-10.56,0,11.63,11.63,0,0,0-2.19,7.13V71.32h-7.63V22.74h7.63v2a11.82,11.82,0,0,1,7.49-2.55q6.21,0,10.63,6a23.31,23.31,0,0,1,4.45,14.35Z"/><path class="cls-1" d="M259.42,71.32H251l-3.5-11.66h-18L226,71.32h-8.37l20.9-69.61Zm-15-22.09-5.88-19.58-5.89,19.58Z"/><path class="cls-1" d="M273.52,60.85h24.1V71.32H265.73V4.7h7.79Z"/><path class="cls-1" d="M319.24,71.94q-7.62,0-13.05-7.31a28.59,28.59,0,0,1-5.43-17.55,28.69,28.69,0,0,1,5.43-17.61q5.43-7.3,13.05-7.3t10.9,4.31V22.74h7.62V71.32h-7.62V67.63Q326.93,71.94,319.24,71.94Zm0-39.52c-3,0-5.55,1.44-7.68,4.32a16.8,16.8,0,0,0-3.18,10.34,16.84,16.84,0,0,0,3.18,10.34c2.11,2.84,4.67,4.27,7.68,4.27s5.59-1.43,7.72-4.27a16.84,16.84,0,0,0,3.18-10.34A16.8,16.8,0,0,0,327,36.74Q323.77,32.42,319.24,32.42Z"/><path class="cls-1" d="M374.78,4.7V15.17H358.17V71.32h-7.79V15.17H333.57V4.7Z"/><path class="cls-1" d="M399.35,47.74l12.95-43h8.38l-21.33,71-21.29-71h8.37Z"/></g></g></svg>